<svg width="24" height="24" viewBox="0 0 24 24" fill="none" xmlns="http://www.w3.org/2000/svg">
<circle cx="12" cy="6" r="4" stroke="#1A6FEE" stroke-width="2"/>
<path d="M20 20.25L20 20.2508C19.9999 20.251 19.9997 20.2525 19.9987 20.2555C19.9969 20.2613 19.9911 20.2775 19.974 20.3042C19.9378 20.361 19.8584 20.4538 19.7 20.5704C19.3761 20.8087 18.8406 21.0602 18.0806 21.2847C16.5729 21.7302 14.4251 22 12 22C9.57485 22 7.42712 21.7302 5.91941 21.2847C5.15941 21.0602 4.62385 20.8087 4.29998 20.5704C4.14165 20.4538 4.06222 20.361 4.02598 20.3042C4.00894 20.2775 4.00306 20.2613 4.00126 20.2555C4.00032 20.2525 4.00008 20.251 4.00005 20.2508L4 20.25C4 16.3261 7.49804 13 12 13C16.502 13 20 16.3261 20 20.25Z" stroke="#1A6FEE" stroke-width="2"/>
</svg>
